<svg xmlns="http://www.w3.org/2000/svg" version="1.1"
    xmlns:xlink="http://www.w3.org/1999/xlink" width="512" height="512" x="0" y="0" viewBox="0 0 512 512" style="enable-background:new 0 0 512 512" xml:space="preserve">
    <g>
        <path fill="#2b3890" d="M477.488 109.871H34.512c-9.593 0-17.379 7.776-17.379 17.379v216.961l16.888 10.553H477.98l16.888-10.553V127.25c0-9.603-7.787-17.379-17.38-17.379z" opacity="1" data-original="#2b3890"></path>
        <path fill="#242e7a" d="M477.488 109.871h-17.64c9.593 0 17.379 7.776 17.379 17.379v227.514h.752l16.888-10.553V127.25c.001-9.603-7.786-17.379-17.379-17.379z" opacity="1" data-original="#242e7a"></path>
        <path fill="#dae7ef" d="M494.868 344.211v60.568c0 9.603-7.786 17.389-17.379 17.389H34.512c-9.593 0-17.379-7.786-17.379-17.389v-60.568z" opacity="1" data-original="#dae7ef"></path>
        <path fill="#c1d5e4" d="M477.227 344.211v60.568c0 9.603-7.786 17.389-17.379 17.389h17.64c9.593 0 17.379-7.786 17.379-17.389v-60.568z" opacity="1" data-original="#c1d5e4"></path>
        <path fill="#b1e4f9" d="M44.047 344.216V139.801a3.018 3.018 0 0 1 3.018-3.018h417.869a3.018 3.018 0 0 1 3.018 3.018v204.414H44.047z" opacity="1" data-original="#b1e4f9"></path>
        <path fill="#90d8f9" d="M449.121 136.783v207.433h18.831V139.801a3.018 3.018 0 0 0-3.018-3.018z" opacity="1" data-original="#90d8f9"></path>
        <path fill="#242e7a" d="M264.985 390.916h-17.969a7.726 7.726 0 1 1 0-15.452h17.969a7.726 7.726 0 1 1 0 15.452z" opacity="1" data-original="#242e7a"></path>
        <path fill="#dae7ef" d="M350.965 512h-189.93c-2.223 0-3.77-2.211-3.008-4.299l4.34-11.892c2.014-5.519 8.242-9.303 15.311-9.303H334.32c7.069 0 13.297 3.784 15.311 9.303l4.34 11.892c.764 2.088-.783 4.299-3.006 4.299z" opacity="1" data-original="#dae7ef"></path>
        <path fill="#c1d5e4" d="M299.433 422.168h-86.866c7.991 25.252.719 47.979-21.817 64.338h130.5c-22.536-16.359-29.808-39.087-21.817-64.338z" opacity="1" data-original="#c1d5e4"></path>
        <path fill="#98b9d3" d="M212.567 422.168c2.004 6.333 3.047 12.507 3.131 18.462h80.603c.084-5.955 1.127-12.129 3.131-18.462z" opacity="1" data-original="#98b9d3"></path>
        <path fill="#dd5ca2" d="M285.324 35.756H128.917L187.641 0h62.149c9.729 0 18.69 5.285 23.397 13.8z" opacity="1" data-original="#dd5ca2"></path>
        <path fill="#eab14d" d="M241.654 35.756H108.917L157.831 0h48.289c9.729 0 18.69 5.285 23.397 13.8z" opacity="1" data-original="#eab14d"></path>
        <path fill="#f9f6f6" d="M411.409 257.434H100.591c-6.447 0-11.674-5.227-11.674-11.674V35.756h322.491c6.447 0 11.674 5.227 11.674 11.674v198.33c.001 6.447-5.226 11.674-11.673 11.674z" opacity="1" data-original="#f9f6f6"></path>
        <path fill="#dae7ef" d="M411.409 35.756h-19.036c6.447 0 11.674 5.227 11.674 11.674v198.33c0 6.448-5.227 11.674-11.674 11.674h19.036c6.447 0 11.674-5.227 11.674-11.674V47.43c0-6.448-5.227-11.674-11.674-11.674z" opacity="1" data-original="#dae7ef"></path>
        <path fill="#80b4fb" d="M197.984 35.756H88.917V13.333C88.917 5.969 94.887 0 102.25 0h60.199c9.729 0 18.69 5.285 23.397 13.8z" opacity="1" data-original="#80b4fb"></path>
        <path fill="#dd5ca2" d="M195.058 175.023h-.067a7.728 7.728 0 0 1-7.66-7.793c.037-4.246.074-8.965.11-13.882h-28.946a7.727 7.727 0 0 1-6.766-11.459c5.807-10.525 25.075-45.263 29.222-50.35 3.698-4.536 8.714-6.373 13.408-4.921 4.743 1.47 8.111 6.057 8.58 11.689.218 2.629.162 21.83.057 39.588h1.613a7.726 7.726 0 1 1 0 15.452h-1.715a13209.6 13209.6 0 0 1-.112 14.015 7.725 7.725 0 0 1-7.724 7.661zm-23.437-37.127h15.921c.062-10.615.104-20.847.099-28.102-4.115 6.982-10.003 17.331-16.02 28.102zM343.953 175.023h-.067a7.728 7.728 0 0 1-7.66-7.793c.037-4.246.074-8.965.11-13.882H307.39a7.727 7.727 0 0 1-6.766-11.459c5.807-10.525 25.075-45.263 29.222-50.35 3.697-4.536 8.714-6.373 13.408-4.921 4.743 1.47 8.111 6.057 8.581 11.689.218 2.629.162 21.83.057 39.588h1.613a7.726 7.726 0 1 1 0 15.452h-1.715a13209.6 13209.6 0 0 1-.112 14.015 7.726 7.726 0 0 1-7.725 7.661zm-23.436-37.127h15.921c.062-10.615.104-20.847.099-28.102-4.116 6.982-10.003 17.331-16.02 28.102zM256 178.661c-15.97 0-28.963-12.993-28.963-28.964v-33.962c0-15.97 12.993-28.963 28.963-28.963s28.963 12.993 28.963 28.963v33.962c-.001 15.971-12.994 28.964-28.963 28.964zm0-76.435c-7.45 0-13.51 6.06-13.51 13.51v33.962c0 7.45 6.06 13.511 13.51 13.511s13.51-6.061 13.51-13.511v-33.962c0-7.45-6.061-13.51-13.51-13.51z" opacity="1" data-original="#dd5ca2"></path>
        <path fill="#ffe07d" d="m337.469 200.958-69.589 91.718c-7.049 9.29-.423 22.635 11.239 22.635h139.179c11.662 0 18.288-13.345 11.239-22.635l-69.589-91.718c-5.646-7.441-16.834-7.441-22.479 0z" opacity="1" data-original="#ffe07d"></path>
        <path fill="#ffd064" d="m429.536 292.676-69.589-91.718c-5.645-7.441-16.833-7.441-22.478 0l-3.443 4.537 66.146 87.18c7.049 9.29.423 22.635-11.239 22.635h29.364c11.662.001 18.288-13.344 11.239-22.634z" opacity="1" data-original="#ffd064"></path>
        <path fill="#242e7a" d="M348.708 271.85a7.725 7.725 0 0 1-7.726-7.726v-38.828a7.726 7.726 0 1 1 15.452 0v38.828a7.725 7.725 0 0 1-7.726 7.726zM348.708 296.521a7.725 7.725 0 0 1-7.726-7.726v-3.171a7.726 7.726 0 1 1 15.452 0v3.171a7.725 7.725 0 0 1-7.726 7.726z" opacity="1" data-original="#242e7a"></path>
    </g>
</svg>