<svg xmlns="http://www.w3.org/2000/svg" version="1.1"
    xmlns:xlink="http://www.w3.org/1999/xlink" width="512" height="512" x="0" y="0" viewBox="0 0 512.001 512.001" style="enable-background:new 0 0 512 512" xml:space="preserve" class="">
    <g>
        <linearGradient id="a" x1="307.491" x2="554.651" y1="216.705" y2="-30.455" gradientTransform="matrix(1.0039 0 0 -1.0039 .192 516.56)" gradientUnits="userSpaceOnUse">
            <stop offset="0" style="stop-color:#A7F3CE" stop-color="#a7f3ce"></stop>
            <stop offset="1" style="stop-color:#61DB99" stop-color="#61db99"></stop>
        </linearGradient>
        <path d="M340.366 164.133c93.488-1.428 169.792 72.153 171.602 165.634.266 13.725-1.106 27.084-3.932 39.898-4.786 21.697-7.631 43.776-7.631 65.995v42.948c0 6.58-5.334 11.914-11.914 11.914h-42.948c-22.219 0-44.298 2.845-65.995 7.631-12.813 2.826-26.172 4.198-39.897 3.932-93.48-1.809-167.061-78.111-165.635-171.597 1.391-91.25 75.101-164.961 166.35-166.355z" style="fill:url(#a);" fill=""></path>
        <linearGradient id="b" x1="388.399" x2="283.418" y1="135.803" y2="240.773" gradientTransform="matrix(1.0039 0 0 -1.0039 .192 516.56)" gradientUnits="userSpaceOnUse">
            <stop offset="0" style="stop-color:#61DB99;stop-opacity:0" stop-color="#61db99;stop-opacity:0"></stop>
            <stop offset="1" style="stop-color:#009E74" stop-color="#009e74"></stop>
        </linearGradient>
        <path d="M340.366 164.133c93.488-1.428 169.792 72.153 171.602 165.634.266 13.725-1.106 27.084-3.932 39.898-4.786 21.697-7.631 43.776-7.631 65.995v42.948c0 6.58-5.334 11.914-11.914 11.914h-42.948c-22.219 0-44.298 2.845-65.995 7.631-12.813 2.826-26.172 4.198-39.897 3.932-93.48-1.809-167.061-78.111-165.635-171.597 1.391-91.25 75.101-164.961 166.35-166.355z" style="fill:url(#b);" fill=""></path>
        <linearGradient id="c" x1="129.97" x2="390.92" y1="332.774" y2="71.824" gradientTransform="matrix(1.0039 0 0 -1.0039 .192 516.56)" gradientUnits="userSpaceOnUse">
            <stop offset="0" style="stop-color:#62E1FB" stop-color="#62e1fb"></stop>
            <stop offset="1" style="stop-color:#00A2F3" stop-color="#00a2f3"></stop>
        </linearGradient>
        <path d="M209.098 9.909C95.204 8.169 2.245 97.81.039 211.696c-.323 16.719 1.348 32.996 4.792 48.606 5.83 26.432 9.296 53.331 9.296 80.4v52.322c0 8.016 6.498 14.515 14.515 14.515h52.322c27.068 0 53.967 3.466 80.4 9.296 15.61 3.443 31.886 5.115 48.605 4.791 113.884-2.205 203.525-95.161 201.789-209.053-1.696-111.167-91.494-200.967-202.66-202.664z" style="fill:url(#c);" fill=""></path>
        <linearGradient id="d" x1="179.038" x2="41.644" y1="218.193" y2="355.583" gradientTransform="matrix(1.0039 0 0 -1.0039 .192 516.56)" gradientUnits="userSpaceOnUse">
            <stop offset="0" style="stop-color:#00A2F3;stop-opacity:0" stop-color="#00a2f3;stop-opacity:0"></stop>
            <stop offset="1" style="stop-color:#0075CD" stop-color="#0075cd"></stop>
        </linearGradient>
        <path d="M132.193 204.739c-5.816-6.18-14.048-10.061-23.206-10.061-17.613 0-31.891 14.278-31.891 31.891 0 9.157 3.88 17.389 10.061 23.206l68.794 68.794c5.817 6.18 14.049 10.061 23.206 10.061 17.613 0 31.891-14.278 31.891-31.891 0-9.157-3.881-17.389-10.061-23.206l-68.794-68.794z" style="fill:url(#d);" fill=""></path>
        <circle cx="108.986" cy="226.565" r="31.891" style="" fill="#ffffff" data-original="#ffffff" class=""></circle>
        <linearGradient id="e" x1="268.872" x2="131.482" y1="218.196" y2="355.586" gradientTransform="matrix(1.0039 0 0 -1.0039 .192 516.56)" gradientUnits="userSpaceOnUse">
            <stop offset="0" style="stop-color:#00A2F3;stop-opacity:0" stop-color="#00a2f3;stop-opacity:0"></stop>
            <stop offset="1" style="stop-color:#0075CD" stop-color="#0075cd"></stop>
        </linearGradient>
        <path d="M222.383 204.739c-5.816-6.18-14.048-10.061-23.206-10.061-17.613 0-31.891 14.278-31.891 31.891 0 9.157 3.88 17.389 10.061 23.206l68.794 68.794c5.817 6.18 14.049 10.061 23.206 10.061 17.613 0 31.891-14.278 31.891-31.891 0-9.157-3.881-17.389-10.061-23.206l-68.794-68.794z" style="fill:url(#e);" fill=""></path>
        <circle cx="199.178" cy="226.565" r="31.891" style="" fill="#ffffff" data-original="#ffffff" class=""></circle>
        <linearGradient id="f" x1="358.71" x2="221.32" y1="218.195" y2="355.584" gradientTransform="matrix(1.0039 0 0 -1.0039 .192 516.56)" gradientUnits="userSpaceOnUse">
            <stop offset="0" style="stop-color:#00A2F3;stop-opacity:0" stop-color="#00a2f3;stop-opacity:0"></stop>
            <stop offset="1" style="stop-color:#0075CD" stop-color="#0075cd"></stop>
        </linearGradient>
        <path d="M312.572 204.739c-5.816-6.18-14.048-10.061-23.206-10.061-17.613 0-31.891 14.278-31.891 31.891 0 9.157 3.881 17.389 10.061 23.206l68.794 68.794c5.817 6.18 14.049 10.061 23.206 10.061 17.613 0 31.891-14.278 31.891-31.891 0-9.157-3.881-17.389-10.061-23.206l-68.794-68.794z" style="fill:url(#f);" fill=""></path>
        <circle cx="289.371" cy="226.565" r="31.891" style="" fill="#ffffff" data-original="#ffffff" class=""></circle>
    </g>
</svg>