<svg xmlns="http://www.w3.org/2000/svg" version="1.1"
    xmlns:xlink="http://www.w3.org/1999/xlink" width="512" height="512" x="0" y="0" viewBox="0 0 512 512" style="enable-background:new 0 0 512 512" xml:space="preserve" class="">
    <g>
        <path fill="#fcd79f" fill-rule="evenodd" d="M126.815 144.636h51.24c66.757 0 121.341 54.585 121.341 121.316v5.287c0 66.731-54.583 121.344-121.341 121.344h-75.474c-2.601 0-2.315-.114-4.601 1.086l-45.381 18.347c-2.629.972-3.887.229-3.744-2.401l-.343-45.268c.057-.4.171-.457-.114-.714-26.234-22.291-42.924-55.499-42.924-92.394v-5.287c0-66.731 54.583-121.316 121.341-121.316z" clip-rule="evenodd" opacity="1" data-original="#fcd79f"></path>
        <path fill="#fac574" fill-rule="evenodd" d="M270.617 244.004h-59.47c-3.944 0-7.173-3.229-7.173-7.173v-89.393a130.19 130.19 0 0 0-9.516-1.715c-17.29 21.72-30.149 48.926-36.808 79.334-3.258 14.947-5.001 30.665-5.03 46.897v.457c0 16.061 1.686 31.636 4.858 46.44 5.887 27.578 16.889 52.556 31.693 73.218 16.232-1.486 31.55-6.23 45.324-13.518a114.77 114.77 0 0 1-7.087-39.753v-5.001c0-36.18 16.889-68.617 43.209-89.793z" clip-rule="evenodd" opacity="1" data-original="#fac574"></path>
        <path fill="#8dcafc" fill-rule="evenodd" d="M391.301 218.569h-48.696c-63.357 0-115.197 51.87-115.197 115.228v5.001c0 63.358 51.84 115.228 115.197 115.228h71.701c2.458 0 2.172-.086 4.372 1.029l43.095 17.433c2.486.915 3.687.229 3.544-2.286l.314-42.982c-.057-.372-.143-.457.114-.657 24.891-21.177 40.78-52.699 40.78-87.764v-5.001c.001-63.359-51.867-115.229-115.224-115.229z" clip-rule="evenodd" opacity="1" data-original="#8dcafc"></path>
        <path fill="#64b9fc" fill-rule="evenodd" d="M439.969 272.411c0 22.834-3.401 44.668-9.631 64.759-5.287 17.033-12.574 32.837-21.519 46.897-22.748 35.78-56.212 60.443-94.278 66.474a115.056 115.056 0 0 0 28.063 3.487h71.701c2.458 0 2.172-.086 4.372 1.029l43.095 17.433c2.486.915 3.687.229 3.544-2.286l.314-42.982c-.057-.372-.143-.457.114-.657 24.891-21.177 40.78-52.699 40.78-87.764V333.8c0-47.755-29.464-88.993-71.101-106.398 2.974 14.373 4.546 29.462 4.546 45.009z" clip-rule="evenodd" opacity="1" data-original="#64b9fc"></path>
        <path fill="#f8f6f6" fill-rule="evenodd" d="M211.147 112.943h137.001c3.944 0 7.144 3.229 7.144 7.173V236.83c0 3.944-3.201 7.173-7.144 7.173H211.147c-3.944 0-7.173-3.229-7.173-7.173V120.116c0-3.944 3.23-7.173 7.173-7.173z" clip-rule="evenodd" opacity="1" data-original="#f8f6f6"></path>
        <path fill="#e2e2e2" fill-rule="evenodd" d="M334.089 120.116V236.83c0 2.886-1.743 5.401-4.201 6.516a6.95 6.95 0 0 1-2.972.657h21.233c3.944 0 7.144-3.229 7.144-7.173V120.116c0-3.944-3.201-7.173-7.144-7.173h-21.233c3.943 0 7.173 3.229 7.173 7.173z" clip-rule="evenodd" opacity="1" data-original="#e2e2e2"></path>
        <path fill="#838383" d="M281.42 220.61a7.499 7.499 0 0 1-7.5-7.5v-24.52c0-4.143 3.357-7.5 7.5-7.5s7.5 3.357 7.5 7.5v24.521a7.499 7.499 0 0 1-7.5 7.499z" opacity="1" data-original="#838383"></path>
        <path fill="#9c9c9c" fill-rule="evenodd" d="M298.109 160.698c-3.201-5.944-9.459-10.002-16.689-10.002s-13.489 4.058-16.689 10.002c-1.457 2.658-2.258 5.716-2.258 8.945 0 10.46 8.488 18.948 18.947 18.948s18.947-8.488 18.947-18.948c0-3.23-.8-6.288-2.258-8.945z" clip-rule="evenodd" opacity="1" data-original="#9c9c9c"></path>
        <path fill="#838383" fill-rule="evenodd" d="M283.42 160.698a18.934 18.934 0 0 1 2.058 8.631c0 7.945-4.915 14.775-11.888 17.576a18.776 18.776 0 0 0 7.83 1.686c10.459 0 18.947-8.488 18.947-18.948 0-3.229-.8-6.287-2.258-8.945-3.201-5.944-9.459-10.002-16.689-10.002-2.486 0-4.858.486-7.059 1.372a18.753 18.753 0 0 1 8.859 8.288c.086.113.143.227.2.342z" clip-rule="evenodd" opacity="1" data-original="#838383"></path>
        <path d="M89.138 279.314h98.618c4.143 0 7.5-3.357 7.5-7.5s-3.357-7.5-7.5-7.5H89.138c-4.143 0-7.5 3.357-7.5 7.5s3.357 7.5 7.5 7.5zM89.138 232.823h73.616c4.143 0 7.5-3.357 7.5-7.5s-3.357-7.5-7.5-7.5H89.138c-4.143 0-7.5 3.357-7.5 7.5s3.357 7.5 7.5 7.5zM89.138 325.806h98.618c4.143 0 7.5-3.357 7.5-7.5s-3.357-7.5-7.5-7.5H89.138c-4.143 0-7.5 3.357-7.5 7.5s3.357 7.5 7.5 7.5zM308.285 343.966H444.32c4.143 0 7.5-3.357 7.5-7.5s-3.357-7.5-7.5-7.5H308.285c-4.143 0-7.5 3.357-7.5 7.5s3.358 7.5 7.5 7.5zM308.285 297.474H409.85c4.143 0 7.5-3.357 7.5-7.5s-3.357-7.5-7.5-7.5H308.285c-4.143 0-7.5 3.357-7.5 7.5s3.358 7.5 7.5 7.5zM308.285 390.458H444.32c4.143 0 7.5-3.357 7.5-7.5s-3.357-7.5-7.5-7.5H308.285c-4.143 0-7.5 3.357-7.5 7.5s3.358 7.5 7.5 7.5zM281.214 144.104c-14.498 0-26.293 11.791-26.293 26.284 0 11.888 7.938 21.952 18.793 25.188v17.904c0 4.143 3.357 7.5 7.5 7.5s7.5-3.357 7.5-7.5v-17.904c10.855-3.236 18.794-13.3 18.794-25.188 0-14.493-11.796-26.284-26.294-26.284zm0 37.567c-6.227 0-11.293-5.062-11.293-11.283s5.066-11.284 11.293-11.284c6.228 0 11.294 5.063 11.294 11.284s-5.067 11.283-11.294 11.283z" fill="#000000" opacity="1" data-original="#000000"></path>
        <path d="M390.207 211.391H361.99V121.29c0-8.057-6.544-14.611-14.587-14.611h-6.588V77.603c0-24.319-19.794-44.104-44.124-44.104h-34.498c-24.313 0-44.095 19.785-44.095 44.104v29.075h-6.589c-8.059 0-14.614 6.555-14.614 14.611v18.12a128.16 128.16 0 0 0-18.211-1.312h-50.825C57.357 138.098 0 195.414 0 265.865v5.241c0 36.334 15.523 70.813 42.711 95.123l.318 41.923c-.177 4.948 2.285 7.531 3.787 8.64 1.238.913 3.063 1.782 5.523 1.781 1.316 0 2.815-.248 4.504-.872.07-.026.14-.054.209-.081l45.015-18.188a7.49 7.49 0 0 0 .675-.313l.17-.09.247-.13h.018l30.323.002c4.143 0 7.5-3.357 7.5-7.5s-3.357-7.5-7.5-7.5h-29.679l-.581-.002c-3.19-.021-4.456.367-7.135 1.763l-38.13 15.406L57.694 364c.323-2.609-.604-5.083-2.61-6.882a9.165 9.165 0 0 0-.153-.134C29.555 335.434 15 304.132 15 271.106v-5.241c0-62.18 50.629-112.767 112.859-112.767h50.825c6.104 0 12.206.497 18.211 1.477v82.419c0 8.057 6.556 14.611 14.614 14.611h40.156c-20.216 22.267-31.526 51.087-31.526 81.518v4.958c0 12.378 1.863 24.328 5.314 35.592-14.612 6.703-30.649 10.228-46.749 10.228l-10.545-.028h-.021a7.5 7.5 0 0 0-.02 15l10.565.028c17.917 0 35.75-3.843 52.058-11.157 19.044 42.437 61.705 72.069 111.162 72.069h13.663c4.143 0 7.5-3.357 7.5-7.5s-3.357-7.5-7.5-7.5h-13.663c-45.806 0-84.963-28.99-100.088-69.578a7.545 7.545 0 0 0-.262-.702c-4.149-11.379-6.415-23.655-6.415-36.451v-4.958c0-31.512 13.85-61.073 38.087-81.518h74.177c8.043 0 14.587-6.555 14.587-14.611v-10.604h28.217c58.886 0 106.793 47.88 106.793 106.732v4.958c0 31.202-13.757 60.808-37.743 81.236-2.087 1.72-3.111 4.253-2.824 6.943l-.255 34.675-35.709-14.438c-2.781-1.411-3.956-1.668-6.979-1.687l-23.282.001c-4.143 0-7.5 3.357-7.5 7.5s3.357 7.5 7.5 7.5l23.323-.001h.027l.127.065.291.147c.188.095.38.182.575.261l42.747 17.282c.074.029.147.059.222.086 1.646.605 3.109.848 4.398.848 2.438-.001 4.248-.867 5.477-1.776 1.483-1.099 3.91-3.652 3.73-8.518l.291-39.598C497.25 405.422 512 372.617 512 338.082v-4.958c0-67.124-54.636-121.733-121.793-121.733zM51.561 403.66l.01-.004zM233.099 77.603c0-16.048 13.052-29.104 29.095-29.104h34.498c16.059 0 29.124 13.057 29.124 29.104v29.075h-92.717zM346.99 236.606H211.895V121.678H346.99z" fill="#000000" opacity="1" data-original="#000000"></path>
    </g>
</svg>