<svg xmlns="http://www.w3.org/2000/svg" version="1.1"
    xmlns:xlink="http://www.w3.org/1999/xlink" width="512" height="512" x="0" y="0" viewBox="0 0 1000 1000" style="enable-background:new 0 0 512 512" xml:space="preserve" class="">
    <g>
        <path fill="#689f38" d="M577.09 534.82a16 16 0 0 1 0-29.64C651.21 475 695.85 413.87 709.76 323.5c7.72-50.11 3.47-95.6.52-116.94H329.73c-3 21.52-7.23 67.53.64 117.81 14.08 89.9 58.63 150.73 132.54 180.81a16 16 0 0 1 0 29.64C388.79 565 344.15 626.13 330.24 716.5c-7.72 50.11-3.47 95.6-.52 116.94h380.55c3-21.52 7.23-67.53-.64-117.81-14.08-89.9-58.63-150.73-132.54-180.81zM404.39 413.9c-17.77-24.46-29.89-55.63-36-92.64a352.61 352.61 0 0 1-4.47-60.85 16 16 0 0 1 16-15.85h280.19a16 16 0 0 1 16 15.85 352.61 352.61 0 0 1-4.47 60.85c-6.14 37-18.26 68.18-36 92.64-18.1 24.89-42.64 43.76-72.88 56.1a53.88 53.88 0 0 0-28.33 26.67 16 16 0 0 1-28.86 0A53.88 53.88 0 0 0 477.24 470c-30.24-12.34-54.78-31.21-72.85-56.1zm255.72 381.54H379.89a16 16 0 0 1-16-15.85 352.61 352.61 0 0 1 4.47-60.85c6.14-37 18.26-68.18 36-92.64 18.1-24.89 42.64-43.76 72.88-56.1a53.88 53.88 0 0 0 28.33-26.67 16 16 0 0 1 28.86 0A53.88 53.88 0 0 0 562.76 570c30.27 12.33 54.78 31.2 72.85 56.09 17.77 24.46 29.89 55.63 36 92.64a352.61 352.61 0 0 1 4.47 60.85 16 16 0 0 1-15.97 15.86z" opacity="1" data-original="#689f38"></path>
        <path fill="#ffeb3b" d="M643.92 276.56a307.51 307.51 0 0 1-3.85 39.44c-10.68 64.36-39.07 103.87-89.38 124.35A85.91 85.91 0 0 0 520 461.58a85.91 85.91 0 0 0-30.69-21.23c-50.3-20.48-78.7-60-89.38-124.33a307.51 307.51 0 0 1-3.85-39.46zM643.92 763.44H396.08a307.51 307.51 0 0 1 3.85-39.44c10.68-64.34 39.08-103.85 89.38-124.33A85.91 85.91 0 0 0 520 578.42a85.91 85.91 0 0 0 30.69 21.23c50.3 20.48 78.7 60 89.38 124.33a307.51 307.51 0 0 1 3.85 39.46z" opacity="1" data-original="#ffeb3b"></path>
        <path fill="#6d4c41" d="M764.85 145.21v20.15a9.22 9.22 0 0 1-9.21 9.2H284.36a9.22 9.22 0 0 1-9.21-9.2v-20.15a9.22 9.22 0 0 1 9.21-9.21h471.28a9.22 9.22 0 0 1 9.21 9.21zM764.85 874.64v20.15a9.22 9.22 0 0 1-9.21 9.21H284.36a9.22 9.22 0 0 1-9.21-9.21v-20.15a9.22 9.22 0 0 1 9.21-9.2h471.28a9.22 9.22 0 0 1 9.21 9.2z" opacity="1" data-original="#6d4c41"></path>
        <g fill="#08283f">
            <path d="M679.65 575.84a228.9 228.9 0 0 0-80-75.84 228.9 228.9 0 0 0 80-75.84c20.87-32.46 34.91-71.42 41.74-115.79 7.86-51 4.36-97 1.2-121.81-1.46-11.43-2.85-18.36-3-19.2a16 16 0 0 0-15.67-12.8H296.1a16 16 0 0 0-15.67 12.8c-.17.84-1.56 7.77-3 19.2-3.16 24.79-6.66 70.78 1.2 121.81 6.83 44.37 20.87 83.33 41.74 115.79a228.9 228.9 0 0 0 80 75.84 228.9 228.9 0 0 0-80 75.84c-20.87 32.46-34.91 71.42-41.74 115.79-7.86 51-4.36 97-1.2 121.81 1.46 11.43 2.85 18.36 3 19.2a16 16 0 0 0 15.67 12.8h407.8a16 16 0 0 0 15.67-12.8c.17-.84 1.56-7.77 3-19.2 3.16-24.79 6.66-70.78-1.2-121.81-6.81-44.37-20.85-83.33-41.72-115.79zm-369.93 237.6c-3-21.34-7.2-66.83.52-116.94 13.91-90.37 58.55-151.5 132.67-181.68a16 16 0 0 0 0-29.64C369 455.1 324.45 394.27 310.37 304.37c-7.87-50.28-3.59-96.29-.64-117.81h380.55c3 21.34 7.2 66.83-.52 116.94-13.91 90.37-58.55 151.5-132.67 181.68a16 16 0 0 0 0 29.64C631 544.9 675.55 605.73 689.63 695.63c7.87 50.28 3.59 96.29.64 117.81z" fill="#08283f" opacity="1" data-original="#08283f" class=""></path>
            <path d="M640.11 224.56H359.89a16 16 0 0 0-16 15.85 352.61 352.61 0 0 0 4.47 60.85c6.14 37 18.26 68.18 36 92.64 18.1 24.89 42.64 43.76 72.88 56.1a53.88 53.88 0 0 1 28.33 26.67 16 16 0 0 0 28.86 0A53.88 53.88 0 0 1 542.76 450c30.27-12.33 54.78-31.2 72.85-56.09 17.77-24.46 29.89-55.63 36-92.64a352.61 352.61 0 0 0 4.47-60.85 16 16 0 0 0-15.97-15.86zm-20 71.46c-10.72 64.34-39.11 103.85-89.42 124.33A85.91 85.91 0 0 0 500 441.58a85.91 85.91 0 0 0-30.69-21.23c-50.3-20.48-78.7-60-89.38-124.33a307.51 307.51 0 0 1-3.85-39.46h247.84a307.51 307.51 0 0 1-3.85 39.44zm31.57 402.72c-6.14-37-18.26-68.18-36-92.64-18.14-24.89-42.68-43.76-72.92-56.1a53.88 53.88 0 0 1-28.33-26.67 16 16 0 0 0-28.86 0A53.88 53.88 0 0 1 457.24 550c-30.27 12.33-54.78 31.2-72.85 56.09-17.77 24.46-29.89 55.63-36 92.64a352.61 352.61 0 0 0-4.47 60.85 16 16 0 0 0 16 15.85h280.19a16 16 0 0 0 16-15.85 352.61 352.61 0 0 0-4.47-60.84zm-275.56 44.7a307.51 307.51 0 0 1 3.81-39.44c10.68-64.34 39.08-103.85 89.38-124.33A85.91 85.91 0 0 0 500 558.42a85.91 85.91 0 0 0 30.69 21.23c50.3 20.48 78.7 60 89.38 124.33a307.51 307.51 0 0 1 3.85 39.46zM735.64 84H264.36a41.25 41.25 0 0 0-41.21 41.21v20.15a41.25 41.25 0 0 0 41.21 41.2h471.28a41.25 41.25 0 0 0 41.21-41.2v-20.15A41.25 41.25 0 0 0 735.64 84zm9.21 61.36a9.22 9.22 0 0 1-9.21 9.2H264.36a9.22 9.22 0 0 1-9.21-9.2v-20.15a9.22 9.22 0 0 1 9.21-9.21h471.28a9.22 9.22 0 0 1 9.21 9.21zM735.64 813.44H264.36a41.25 41.25 0 0 0-41.21 41.2v20.15A41.25 41.25 0 0 0 264.36 916h471.28a41.25 41.25 0 0 0 41.21-41.21v-20.15a41.25 41.25 0 0 0-41.21-41.2zm9.21 61.35a9.22 9.22 0 0 1-9.21 9.21H264.36a9.22 9.22 0 0 1-9.21-9.21v-20.15a9.22 9.22 0 0 1 9.21-9.2h471.28a9.22 9.22 0 0 1 9.21 9.2z" fill="#08283f" opacity="1" data-original="#08283f" class=""></path>
        </g>
    </g>
</svg>