<svg xmlns="http://www.w3.org/2000/svg" version="1.1"
    xmlns:xlink="http://www.w3.org/1999/xlink" width="512" height="512" x="0" y="0" viewBox="0 0 512 512" style="enable-background:new 0 0 512 512" xml:space="preserve" class="">
    <g>
        <path d="m284.728 498.531-22.88 12.026a12.572 12.572 0 0 1-11.696 0l-22.88-12.026C101.637 432.497 24.273 310.645 24.273 178.797V98.26c0-6.369 4.754-11.814 11.087-12.482 43.305-4.569 77.734-35.571 83.221-74.779C119.46 4.726 124.717 0 131.052 0h249.897c6.334 0 11.592 4.726 12.47 10.999 5.487 39.208 39.916 70.21 83.221 74.779 6.334.668 11.087 6.114 11.087 12.482v80.536c0 131.849-77.364 253.701-202.999 319.735z" style="" fill="#e1e6e9" data-original="#e1e6e9"></path>
        <path d="M476.639 85.778c-43.305-4.569-77.734-35.571-83.221-74.779C392.54 4.726 387.283 0 380.948 0h-17.013c2.451 54.359 41.186 92.912 83.096 97.333 6.334.668 11.087 6.113 11.087 12.482v80.536c0 131.848-77.364 253.701-202.998 319.734l-2.642 1.388c3.097.905 6.456.613 9.369-.918l22.88-12.026c125.634-66.034 202.998-187.886 202.998-319.734V98.26c.001-6.369-4.752-11.814-11.086-12.482z" style="" fill="#cbcbcb" data-original="#cbcbcb"></path>
        <path d="M247.521 466.238c-56.97-29.943-104.358-72.979-137.039-124.454-32.295-50.867-49.366-108.674-49.366-167.171V128.9c0-6.615 4.017-12.586 10.168-15.02 33.882-13.407 61.223-38.573 76.176-70.011 2.664-5.602 8.359-9.129 14.563-9.129h187.954c6.203 0 11.898 3.527 14.562 9.129 14.954 31.438 42.294 56.605 76.176 70.012 6.151 2.434 10.168 8.405 10.168 15.02v45.713c0 58.497-17.07 116.304-49.365 167.171-32.681 51.475-80.069 94.511-137.038 124.454l-.948.498a16.19 16.19 0 0 1-15.063 0l-.948-.499z" style="" fill="#4ad194" data-original="#4ad194"></path>
        <path d="M440.715 113.88c-.265-.105-.527-.217-.791-.324a151.09 151.09 0 0 1-3.55-1.483c-.428-.185-.857-.37-1.283-.559a148.3 148.3 0 0 1-2.362-1.077c-.355-.165-.713-.326-1.066-.494a147.027 147.027 0 0 1-3.36-1.644c-.084-.042-.166-.087-.249-.13a150.639 150.639 0 0 1-3.063-1.603c-.359-.194-.715-.393-1.072-.589a134.407 134.407 0 0 1-5.456-3.148c-.395-.239-.789-.479-1.182-.722a148.26 148.26 0 0 1-2.117-1.339c-.342-.22-.686-.437-1.026-.659a146.18 146.18 0 0 1-2.852-1.915l-.212-.143c-1.011-.7-2.011-1.413-3.002-2.137-.309-.226-.614-.457-.921-.685a145.507 145.507 0 0 1-2.03-1.53c-.36-.277-.717-.558-1.074-.838a154.903 154.903 0 0 1-2.912-2.344 140.396 140.396 0 0 1-1.862-1.571c-.316-.271-.635-.54-.949-.814a140.091 140.091 0 0 1-2.261-2.017c-.154-.141-.312-.278-.466-.419a139.085 139.085 0 0 1-2.649-2.499c-.251-.243-.497-.491-.746-.736-.62-.608-1.236-1.219-1.844-1.838-.31-.316-.616-.635-.923-.954a136.939 136.939 0 0 1-4.136-4.482c-.284-.321-.569-.641-.85-.964a137.114 137.114 0 0 1-1.817-2.144c-.174-.209-.352-.415-.525-.625-.766-.932-1.52-1.875-2.26-2.826-.19-.243-.373-.491-.561-.736a134.924 134.924 0 0 1-1.625-2.155c-.256-.347-.507-.698-.759-1.047-.459-.636-.914-1.275-1.363-1.918a132.157 132.157 0 0 1-2.079-3.078c-.238-.363-.478-.725-.713-1.09-.477-.743-.944-1.492-1.407-2.244-.17-.276-.345-.55-.513-.827a138.08 138.08 0 0 1-1.826-3.109c-.125-.221-.245-.445-.369-.666a134.4 134.4 0 0 1-1.372-2.502c-.198-.371-.389-.745-.583-1.117-.366-.703-.728-1.409-1.082-2.119-.203-.406-.402-.814-.6-1.223-.15-.31-.308-.617-.456-.928-2.665-5.602-8.359-9.129-14.562-9.129H256v433.856c2.587 0 5.174-.619 7.532-1.859l.948-.498c56.969-29.943 104.357-72.979 137.038-124.454 32.296-50.867 49.365-108.674 49.365-167.171V128.9c0-6.615-4.017-12.586-10.168-15.02z" style="" fill="#35b79e" data-original="#35b79e"></path>
        <path d="M440.715 113.88c-.265-.105-.527-.217-.791-.324a151.09 151.09 0 0 1-3.55-1.483c-.428-.185-.857-.37-1.283-.559a148.3 148.3 0 0 1-2.362-1.077c-.355-.165-.713-.326-1.066-.494a147.027 147.027 0 0 1-3.36-1.644c-.084-.042-.166-.087-.249-.13a150.639 150.639 0 0 1-3.063-1.603c-.359-.194-.715-.393-1.072-.589a134.407 134.407 0 0 1-5.456-3.148c-.395-.239-.789-.479-1.182-.722a148.26 148.26 0 0 1-2.117-1.339c-.342-.22-.686-.437-1.026-.659a146.18 146.18 0 0 1-2.852-1.915l-.212-.143c-1.011-.7-2.011-1.413-3.002-2.137-.309-.226-.614-.457-.921-.685a145.507 145.507 0 0 1-2.03-1.53c-.36-.277-.717-.558-1.074-.838a154.903 154.903 0 0 1-2.912-2.344 140.396 140.396 0 0 1-1.862-1.571c-.316-.271-.635-.54-.949-.814a140.091 140.091 0 0 1-2.261-2.017c-.154-.141-.312-.278-.466-.419a139.085 139.085 0 0 1-2.649-2.499c-.251-.243-.497-.491-.746-.736-.62-.608-1.236-1.219-1.844-1.838-.31-.316-.616-.635-.923-.954a136.939 136.939 0 0 1-4.136-4.482c-.284-.321-.569-.641-.85-.964a137.114 137.114 0 0 1-1.817-2.144c-.174-.209-.352-.415-.525-.625-.766-.932-1.52-1.875-2.26-2.826-.19-.243-.373-.491-.561-.736a134.924 134.924 0 0 1-1.625-2.155c-.256-.347-.507-.698-.759-1.047-.459-.636-.914-1.275-1.363-1.918a132.157 132.157 0 0 1-2.079-3.078c-.238-.363-.478-.725-.713-1.09-.477-.743-.944-1.492-1.407-2.244-.17-.276-.345-.55-.513-.828a138.08 138.08 0 0 1-1.826-3.109c-.125-.221-.245-.445-.369-.666a141.12 141.12 0 0 1-1.372-2.502c-.198-.37-.389-.744-.583-1.117-.366-.704-.728-1.409-1.082-2.119-.203-.406-.402-.814-.6-1.223-.15-.31-.308-.617-.456-.928-2.665-5.602-8.359-9.129-14.562-9.129h-26.01c3.367 4.247 7.151 9.852 11.433 17.247.173.298.305.618.456.928.198.408.398.816.6 1.223.354.71.716 1.416 1.082 2.119.194.372.386.746.583 1.117.448.839.907 1.673 1.372 2.502.124.221.243.445.369.666a128.917 128.917 0 0 0 1.826 3.109c.168.278.343.551.513.827.462.752.929 1.501 1.407 2.244.235.365.475.727.713 1.09a140.588 140.588 0 0 0 2.079 3.078c.448.644.903 1.283 1.363 1.918.253.35.503.7.759 1.047.534.724 1.077 1.441 1.625 2.155.188.245.371.493.561.736.741.952 1.494 1.894 2.26 2.826.173.21.351.416.525.625.599.72 1.203 1.436 1.817 2.144.28.324.566.643.85.964a138.98 138.98 0 0 0 2.518 2.777c.534.573 1.073 1.141 1.618 1.705.307.319.613.638.923.954.608.619 1.224 1.23 1.844 1.838.249.245.495.493.746.736.872.843 1.754 1.677 2.649 2.499.154.141.312.278.466.419.746.679 1.499 1.353 2.261 2.017.314.274.633.543.949.814.617.528 1.236 1.053 1.862 1.571a149.16 149.16 0 0 0 2.912 2.344c.357.28.714.561 1.074.838.671.516 1.349 1.025 2.03 1.53.307.228.612.459.921.685a149.21 149.21 0 0 0 3.002 2.137l.212.143c.942.649 1.893 1.286 2.852 1.914.34.223.684.439 1.026.659.702.451 1.407.899 2.117 1.339.392.243.787.482 1.182.722.68.412 1.363.819 2.051 1.22.401.234.802.468 1.206.699.728.416 1.463.824 2.199 1.229.358.196.713.396 1.072.589 1.013.545 2.034 1.08 3.063 1.603.084.042.166.087.249.13 1.111.562 2.232 1.108 3.36 1.644.353.168.711.329 1.066.494.784.365 1.57.725 2.362 1.077.426.189.855.374 1.283.559a142.34 142.34 0 0 0 3.55 1.483c.265.106.526.219.791.324 6.151 2.434 10.168 8.405 10.168 15.02v45.713c0 58.497-17.07 116.304-49.365 167.171C343.734 395.019 303.79 438.061 256 468.168v.426c2.587 0 5.174-.619 7.532-1.859l.948-.498c56.969-29.943 104.357-72.979 137.038-124.454 32.296-50.867 49.365-108.674 49.365-167.171V128.9c0-6.615-4.017-12.586-10.168-15.02z" style="" fill="#1e9690" data-original="#1e9690"></path>
        <path d="M203.204 198.928v-52.145c0-29.271 23.813-53.083 53.084-53.083 29.27 0 53.083 23.813 53.083 53.083v52.145h15v-52.145c0-37.542-30.542-68.083-68.083-68.083s-68.083 30.542-68.083 68.083v52.145h14.999z" style="" fill="#515a66" data-original="#515a66"></path>
        <path d="M341.904 327.284H170.671c-9.031 0-16.353-7.321-16.353-16.353V203.546c0-9.031 7.321-16.353 16.353-16.353h171.233c9.031 0 16.353 7.321 16.353 16.353v107.385c-.001 9.032-7.322 16.353-16.353 16.353z" style="" fill="#636a75" data-original="#636a75"></path>
        <path d="M341.904 187.194h-29.608c9.031 0 16.353 7.321 16.353 16.353v107.385c0 9.031-7.321 16.353-16.353 16.353h29.608c9.031 0 16.353-7.321 16.353-16.353V203.546c-.001-9.031-7.322-16.352-16.353-16.352z" style="" fill="#515a66" data-original="#515a66"></path>
        <path d="M273.854 249.126c0-9.702-7.865-17.567-17.567-17.567s-17.567 7.865-17.567 17.567c0 7.015 4.122 13.052 10.067 15.868v21.355a7.5 7.5 0 0 0 15 0v-21.354c5.945-2.817 10.067-8.854 10.067-15.869z" style="" fill="#f1f1f1" data-original="#f1f1f1"></path>
    </g>
</svg>