<svg xmlns="http://www.w3.org/2000/svg" version="1.1"
    xmlns:xlink="http://www.w3.org/1999/xlink" width="512" height="512" x="0" y="0" viewBox="0 0 48 48" style="enable-background:new 0 0 512 512" xml:space="preserve" class="">
    <g>
        <g fill="#ffe066">
            <path d="M43.59 22.72c-1.4 1.3-2.91 2.2-4.34 2.61-.22.06-.43.11-.64.15C38.1 26.39 37.12 27 36 27c-1.66 0-3-1.34-3-3 0-1.01.49-1.89 1.25-2.43.49-.36 1.1-.57 1.75-.57.12 0 .23.01.35.03 1.27.14 2.3 1.08 2.57 2.31 1.15-.38 2.42-1.2 3.51-2.27l.11-.11-3.12-4.28-1.02-1.39c-.05-.07-.11-.14-.16-.21A8.013 8.013 0 0 0 31.93 12H11.21c-4.42 0-8 3.58-8 8v8c0 4.42 3.58 8 8 8h20.72c2.56 0 4.96-1.22 6.47-3.29l4.63-6.35a4 4 0 0 0 .56-3.64zm-30.16 4.03c0 .55-.44 1-1 1h-.21c-.33 0-.65-.17-.83-.45l-2.88-4.39c-.19-.28-.32-.5-.39-.64H8.1c.03.27.04.69.04 1.25v3.59c0 .35-.28.64-.63.64-.56 0-1-.45-1-1v-5.7c0-.55.44-1 1-1h.32a1 1 0 0 1 .84.45l2.76 4.24c.14.21.27.42.39.63h.02c-.03-.18-.04-.54-.04-1.06v-3.26c0-.55.44-1 1-1 .35 0 .63.28.63.64zm6.39 1H16.2c-.56 0-1-.45-1-1v-5.7c0-.55.44-1 1-1h3.44v1.41h-2.71v1.71h2.52v1.41h-2.52v1.76h2.89zM30.8 21.3l-1.51 5.71c-.12.43-.51.74-.97.74h-.38c-.45 0-.85-.31-.97-.75l-1.08-4.19c-.07-.26-.11-.55-.12-.87h-.02c-.04.35-.08.64-.14.87l-1.12 4.2c-.11.43-.51.74-.96.74h-.47c-.45 0-.85-.31-.96-.75l-1.5-5.7a.995.995 0 0 1 .96-1.25c.35 0 .65.24.73.58l.96 4.55a7 7 0 0 1 .1.88h.03c.02-.28.07-.58.16-.9l1.19-4.38c.12-.43.52-.73.97-.73h.31c.46 0 .86.31.97.76l1.07 4.41c.05.19.09.47.13.83h.02c.01-.29.05-.57.11-.86l.97-4.7c.06-.26.28-.44.55-.44.65 0 1.13.62.97 1.25z" fill="#ffe066" opacity="1" data-original="#ffe066" class=""></path>
            <path d="M13.43 20.69v6.06c0 .55-.44 1-1 1h-.21c-.33 0-.65-.17-.83-.45l-2.88-4.39c-.19-.28-.32-.5-.39-.64H8.1c.03.27.04.69.04 1.25v3.59c0 .35-.28.64-.63.64-.56 0-1-.45-1-1v-5.7c0-.55.44-1 1-1h.32a1 1 0 0 1 .84.45l2.76 4.24c.14.21.27.42.39.63h.02c-.03-.18-.04-.54-.04-1.06v-3.26c0-.55.44-1 1-1 .35 0 .63.28.63.64zM19.82 26.34v1.41H16.2c-.56 0-1-.45-1-1v-5.7c0-.55.44-1 1-1h3.44v1.41h-2.71v1.71h2.52v1.41h-2.52v1.76zM30.8 21.3l-1.51 5.71c-.12.43-.51.74-.97.74h-.38c-.45 0-.85-.31-.97-.75l-1.08-4.19c-.07-.26-.11-.55-.12-.87h-.02c-.04.35-.08.64-.14.87l-1.12 4.2c-.11.43-.51.74-.96.74h-.47c-.45 0-.85-.31-.96-.75l-1.5-5.7a.995.995 0 0 1 .96-1.25c.35 0 .65.24.73.58l.96 4.55a7 7 0 0 1 .1.88h.03c.02-.28.07-.58.16-.9l1.19-4.38c.12-.43.52-.73.97-.73h.31c.46 0 .86.31.97.76l1.07 4.41c.05.19.09.47.13.83h.02c.01-.29.05-.57.11-.86l.97-4.7c.06-.26.28-.44.55-.44.65 0 1.13.62.97 1.25z" fill="#ffe066" opacity="1" data-original="#ffe066" class=""></path>
        </g>
        <path fill="#f25f5c" d="M12.8 20.05c-.56 0-1 .45-1 1v3.26c0 .52.01.88.04 1.06h-.02c-.12-.21-.25-.42-.39-.63L8.67 20.5a1 1 0 0 0-.84-.45h-.32c-.56 0-1 .45-1 1v5.7c0 .55.44 1 1 1 .35 0 .63-.29.63-.64v-3.59c0-.56-.01-.98-.04-1.25h.02c.07.14.2.36.39.64l2.88 4.39c.18.28.5.45.83.45h.21c.56 0 1-.45 1-1v-6.06a.63.63 0 0 0-.63-.64z" opacity="1" data-original="#f25f5c" class=""></path>
        <path fill="#f25f5c" d="M12.8 20.05c-.56 0-1 .45-1 1v3.26c0 .52.01.88.04 1.06h-.02c-.12-.21-.25-.42-.39-.63L8.67 20.5a1 1 0 0 0-.84-.45h-.32c-.56 0-1 .45-1 1v5.7c0 .55.44 1 1 1 .35 0 .63-.29.63-.64v-3.59c0-.56-.01-.98-.04-1.25h.02c.07.14.2.36.39.64l2.88 4.39c.18.28.5.45.83.45h.21c.56 0 1-.45 1-1v-6.06a.63.63 0 0 0-.63-.64zM16.93 26.34v-1.76h2.52v-1.41h-2.52v-1.71h2.71v-1.41H16.2c-.56 0-1 .45-1 1v5.7c0 .55.44 1 1 1h3.62v-1.41zM29.83 20.05c-.27 0-.49.18-.55.44l-.97 4.7c-.06.29-.1.57-.11.86h-.02c-.04-.36-.08-.64-.13-.83l-1.07-4.41a.995.995 0 0 0-.97-.76h-.31c-.45 0-.85.3-.97.73l-1.19 4.38c-.09.32-.14.62-.16.9h-.03a7 7 0 0 0-.1-.88l-.96-4.55a.749.749 0 0 0-.73-.58c-.65 0-1.13.62-.96 1.25l1.5 5.7c.11.44.51.75.96.75h.47c.45 0 .85-.31.96-.74l1.12-4.2c.06-.23.1-.52.14-.87h.02c.01.32.05.61.12.87L26.97 27c.12.44.52.75.97.75h.38c.46 0 .85-.31.97-.74l1.51-5.71c.16-.63-.32-1.25-.97-1.25z" opacity="1" data-original="#f25f5c" class=""></path>
        <path fill="#50514f" d="M43.9 22.43c-.1.1-.21.2-.31.29-1.4 1.3-2.91 2.2-4.34 2.61-.22.06-.43.11-.64.15-.34.06-.66.09-.97.09-1.01 0-1.86-.32-2.49-.94-.73-.72-1.05-1.8-.9-3.06.49-.36 1.1-.57 1.75-.57.12 0 .23.01.35.03 0 .09-.01.18-.03.27-.12.51-.25 1.43.24 1.91.4.39 1.18.47 2.14.2.07-.02.15-.04.22-.07 1.15-.38 2.42-1.2 3.51-2.27l.11-.11c2.29-2.35 3.01-5 2.14-5.86-.74-.75-3.02-.31-5.2 1.54-.02.02-.04.03-.06.04l-1.02-1.39c-.05-.07-.11-.14-.16-.21 2.92-2.45 6.22-3.04 7.86-1.4 1.83 1.84.87 5.68-2.2 8.75z" opacity="1" data-original="#50514f" class=""></path>
        <path fill="#ccad66" d="M43.66 23.05c-.03-.11-.03-.22-.07-.33-1.4 1.3-2.91 2.2-4.34 2.61-.22.06-.43.11-.64.15-.08.15-.19.29-.3.42.1-.01.19-.01.3-.03.21-.04.42-.09.64-.15 1.43-.41 2.94-1.31 4.34-2.61.02-.01.05-.04.07-.06z" opacity="1" data-original="#ccad66"></path>
        <path fill="#ccad66" d="M38.74 26.23c.15-.26.24-.55.31-.85-.15.04-.29.07-.43.1-.52.91-1.5 1.52-2.62 1.52-1.36 0-2.5-.91-2.87-2.16a2.989 2.989 0 0 0 2.99 2.91c1.13 0 2.11-.61 2.62-1.52z" opacity="1" data-original="#ccad66"></path>
    </g>
</svg>