<svg xmlns="http://www.w3.org/2000/svg" version="1.1"
    xmlns:xlink="http://www.w3.org/1999/xlink" width="512" height="512" x="0" y="0" viewBox="0 0 497 497" style="enable-background:new 0 0 512 512" xml:space="preserve" class="">
    <g>
        <path fill="#67d461" d="M405.881 345.829v-81.185H34.423l-30 30c-9.449 9.449-2.757 25.607 10.607 25.607h327.744a7.5 7.5 0 0 1 7.5 7.5v37.469c0 13.364 16.157 20.057 25.607 10.607z" opacity="1" data-original="#67d461"></path>
        <path fill="#94e368" d="m405.881 345.829 86.726-86.722c5.858-5.858 5.858-15.356 0-21.214l-116.725-116.72c-9.45-9.45-25.607-2.757-25.607 10.607v37.469a7.5 7.5 0 0 1-7.5 7.5H15.03c-13.364 0-20.056 16.157-10.607 25.607l40.84 40.84a7.5 7.5 0 0 1 0 10.607l-10.84 10.84c-9.449 9.449-2.757 25.607 10.607 25.607h320.244c8.284 0 15 6.716 15 15v29.972c0 13.363 16.157 20.056 25.607 10.607z" opacity="1" data-original="#94e368"></path>
    </g>
</svg>